<svg xmlns="http://www.w3.org/2000/svg" version="1.1" xmlns:xlink="http://www.w3.org/1999/xlink" xmlns:svgjs="http://svgjs.dev/svgjs" width="1440" height="560" preserveAspectRatio="none" viewBox="0 0 1440 560"><g mask="url(&quot;#SvgjsMask1032&quot;)" fill="none"><rect width="1440" height="560" x="0" y="0" fill="rgba(34, 40, 49, 1)"></rect><path d="M13 376L12 15" stroke-width="6" stroke="url(&quot;#SvgjsLinearGradient1033&quot;)" stroke-linecap="round" class="Up"></path><path d="M155 247L154 556" stroke-width="8" stroke="url(&quot;#SvgjsLinearGradient1033&quot;)" stroke-linecap="round" class="Up"></path><path d="M458 241L457 0" stroke-width="8" stroke="url(&quot;#SvgjsLinearGradient1034&quot;)" stroke-linecap="round" class="Down"></path><path d="M96 84L95 419" stroke-width="10" stroke="url(&quot;#SvgjsLinearGradient1034&quot;)" stroke-linecap="round" class="Down"></path><path d="M676 113L675 429" stroke-width="10" stroke="url(&quot;#SvgjsLinearGradient1034&quot;)" stroke-linecap="round" class="Down"></path><path d="M1363 455L1362 787" stroke-width="10" stroke="url(&quot;#SvgjsLinearGradient1033&quot;)" stroke-linecap="round" class="Up"></path><path d="M68 197L67 472" stroke-width="10" stroke="url(&quot;#SvgjsLinearGradient1034&quot;)" stroke-linecap="round" class="Down"></path><path d="M155 232L154 650" stroke-width="8" stroke="url(&quot;#SvgjsLinearGradient1033&quot;)" stroke-linecap="round" class="Up"></path><path d="M985 20L984 361" stroke-width="10" stroke="url(&quot;#SvgjsLinearGradient1034&quot;)" stroke-linecap="round" class="Down"></path><path d="M548 229L547 61" stroke-width="8" stroke="url(&quot;#SvgjsLinearGradient1033&quot;)" stroke-linecap="round" class="Up"></path><path d="M983 483L982 630" stroke-width="6" stroke="url(&quot;#SvgjsLinearGradient1033&quot;)" stroke-linecap="round" class="Up"></path><path d="M368 476L367 644" stroke-width="8" stroke="url(&quot;#SvgjsLinearGradient1034&quot;)" stroke-linecap="round" class="Down"></path><path d="M1023 47L1022 -309" stroke-width="8" stroke="url(&quot;#SvgjsLinearGradient1034&quot;)" stroke-linecap="round" class="Down"></path><path d="M143 503L142 215" stroke-width="8" stroke="url(&quot;#SvgjsLinearGradient1034&quot;)" stroke-linecap="round" class="Down"></path><path d="M341 512L340 265" stroke-width="6" stroke="url(&quot;#SvgjsLinearGradient1034&quot;)" stroke-linecap="round" class="Down"></path><path d="M1120 409L1119 602" stroke-width="8" stroke="url(&quot;#SvgjsLinearGradient1034&quot;)" stroke-linecap="round" class="Down"></path><path d="M707 99L706 -133" stroke-width="8" stroke="url(&quot;#SvgjsLinearGradient1034&quot;)" stroke-linecap="round" class="Down"></path><path d="M1048 537L1047 343" stroke-width="8" stroke="url(&quot;#SvgjsLinearGradient1034&quot;)" stroke-linecap="round" class="Down"></path><path d="M616 201L615 389" stroke-width="8" stroke="url(&quot;#SvgjsLinearGradient1033&quot;)" stroke-linecap="round" class="Up"></path><path d="M914 421L913 260" stroke-width="6" stroke="url(&quot;#SvgjsLinearGradient1033&quot;)" stroke-linecap="round" class="Up"></path><path d="M817 207L816 -189" stroke-width="8" stroke="url(&quot;#SvgjsLinearGradient1034&quot;)" stroke-linecap="round" class="Down"></path><path d="M453 420L452 19" stroke-width="10" stroke="url(&quot;#SvgjsLinearGradient1033&quot;)" stroke-linecap="round" class="Up"></path><path d="M377 42L376 -362" stroke-width="8" stroke="url(&quot;#SvgjsLinearGradient1033&quot;)" stroke-linecap="round" class="Up"></path><path d="M1008 115L1007 -305" stroke-width="10" stroke="url(&quot;#SvgjsLinearGradient1033&quot;)" stroke-linecap="round" class="Up"></path><path d="M316 153L315 360" stroke-width="6" stroke="url(&quot;#SvgjsLinearGradient1033&quot;)" stroke-linecap="round" class="Up"></path><path d="M595 476L594 108" stroke-width="10" stroke="url(&quot;#SvgjsLinearGradient1034&quot;)" stroke-linecap="round" class="Down"></path><path d="M1135 66L1134 267" stroke-width="10" stroke="url(&quot;#SvgjsLinearGradient1034&quot;)" stroke-linecap="round" class="Down"></path><path d="M1116 522L1115 275" stroke-width="6" stroke="url(&quot;#SvgjsLinearGradient1033&quot;)" stroke-linecap="round" class="Up"></path><path d="M814 414L813 716" stroke-width="6" stroke="url(&quot;#SvgjsLinearGradient1034&quot;)" stroke-linecap="round" class="Down"></path><path d="M1163 516L1162 731" stroke-width="10" stroke="url(&quot;#SvgjsLinearGradient1033&quot;)" stroke-linecap="round" class="Up"></path><path d="M715 13L714 -328" stroke-width="6" stroke="url(&quot;#SvgjsLinearGradient1034&quot;)" stroke-linecap="round" class="Down"></path><path d="M768 115L767 -279" stroke-width="6" stroke="url(&quot;#SvgjsLinearGradient1034&quot;)" stroke-linecap="round" class="Down"></path><path d="M288 431L287 53" stroke-width="6" stroke="url(&quot;#SvgjsLinearGradient1033&quot;)" stroke-linecap="round" class="Up"></path><path d="M93 197L92 -138" stroke-width="6" stroke="url(&quot;#SvgjsLinearGradient1033&quot;)" stroke-linecap="round" class="Up"></path><path d="M1420 60L1419 -305" stroke-width="8" stroke="url(&quot;#SvgjsLinearGradient1034&quot;)" stroke-linecap="round" class="Down"></path><path d="M507 541L506 348" stroke-width="6" stroke="url(&quot;#SvgjsLinearGradient1034&quot;)" stroke-linecap="round" class="Down"></path></g><defs><mask id="SvgjsMask1032"><rect width="1440" height="560" fill="#ffffff"></rect></mask><linearGradient x1="0%" y1="100%" x2="0%" y2="0%" id="SvgjsLinearGradient1033"><stop stop-color="rgba(240, 84, 84, 0)" offset="0"></stop><stop stop-color="rgba(240, 84, 84, 1)" offset="1"></stop></linearGradient><linearGradient x1="0%" y1="0%" x2="0%" y2="100%" id="SvgjsLinearGradient1034"><stop stop-color="rgba(240, 84, 84, 0)" offset="0"></stop><stop stop-color="rgba(240, 84, 84, 1)" offset="1"></stop></linearGradient></defs></svg>